<?xml version="1.0" encoding="UTF-8"?>
<!DOCTYPE svg PUBLIC "-//W3C//DTD SVG 1.1//EN" "http://www.w3.org/Graphics/SVG/1.1/DTD/svg11.dtd">
<!-- Creator: CorelDRAW -->
<svg xmlns="http://www.w3.org/2000/svg" xml:space="preserve" width="94.9681mm" height="158.725mm" version="1.1" style="shape-rendering:geometricPrecision; text-rendering:geometricPrecision; image-rendering:optimizeQuality; fill-rule:evenodd; clip-rule:evenodd"
viewBox="0 0 451.79 755.1"
 xmlns:xlink="http://www.w3.org/1999/xlink"
 xmlns:xodm="http://www.corel.com/coreldraw/odm/2003">
 <defs>
  <style type="text/css">
   <![CDATA[
    .fil2 {fill:#DA251B}
    .fil1 {fill:#29A74D}
    .fil5 {fill:#00923D}
    .fil0 {fill:#281671}
    .fil4 {fill:black}
    .fil3 {fill:white}
   ]]>
  </style>
 </defs>
 <g id="Capa_x0020_1">
  <metadata id="CorelCorpID_0Corel-Layer"/>
  <path class="fil0" d="M0.03 369.27c24.26,8.83 70.6,16.96 118.2,34.34 18.18,6.64 35.88,14.13 54.1,22.23 7.4,3.29 50.02,25.01 52.42,25.35l105.95 -46.31c36.77,-13.68 80.6,-27.62 121.08,-34.46l-1.24 -288.52c-68.12,4.43 -223.95,78.36 -224.42,78.36 -4.97,0 -40.64,-19.06 -50.17,-23.21 -41.77,-18.21 -132.3,-52.45 -174.29,-55.12l-1.64 287.34z"/>
  <path class="fil1" d="M414.97 753.51c-14.42,-10.94 -38.08,-16.52 -75.22,-46.17 -23,-18.36 -41.47,-37 -59.59,-61.66 -46.93,-63.88 -54.89,-106.43 -63.25,-181.32 -33.96,-14.66 -63.76,-32.28 -101.96,-46.22 -22.62,-8.26 -91.44,-31.45 -114.51,-31.67 -5.31,138.17 37.15,216.36 106.7,281.86 76.48,72.03 170.66,93.14 307.83,85.17z"/>
  <path class="fil2" d="M234.84 466.34c-11.57,91.11 56.85,192.64 129.76,240.86 18.24,12.06 60.4,36.42 85.81,39.89l-0.09 -360.13c-41.3,1.44 -187.08,59.81 -215.49,79.39z"/>
  <path class="fil3" d="M91.71 155.9c-38.31,10.4 -72.58,49.64 -58.7,101.47 9.74,36.39 50.2,71.63 100.34,57.91 105.16,-28.76 63.03,-187.8 -41.64,-159.38z"/>
  <path class="fil3" d="M320.11 155.6c-38.61,9.59 -73.29,49.65 -60.48,99.68 26.24,102.51 184.04,69.79 160.23,-39.14 -8.4,-38.46 -50.28,-72.83 -99.75,-60.54z"/>
  <path class="fil2" d="M1.59 73.6c40.32,8.11 81.47,19.76 117.54,32.63 162.47,57.99 49.94,60.84 212.28,0.79 38.07,-14.08 77.14,-24.12 119.07,-33.47l0.03 -23.02c-73.05,7.15 -220.49,86.99 -224.42,87.01 -4.75,0.02 -150.42,-79.67 -224.42,-87.02l-0.08 23.08z"/>
  <path class="fil4" d="M152.01 206.41c-6.49,12.74 -13.8,29.45 -36,21.99 -16.83,-5.66 -19.88,-22.86 -13.13,-41.42 -48.08,7.43 -53.47,73.65 -11.94,93.47 54.99,26.23 91.48,-48.27 61.07,-74.04z"/>
  <path class="fil4" d="M380.7 206c-7.7,9.2 -11.44,30.03 -36.08,22.7 -19.49,-5.8 -20.6,-22.06 -14.6,-41.63 -48.46,7.83 -53.94,74.83 -10.85,94.1 32.91,14.72 91.18,-12.33 61.54,-75.18z"/>
  <path class="fil3" d="M184.3 333.89c2.22,6.97 37.28,45.01 44.17,49.16 9.28,-11.88 37.54,-37.75 42.4,-49.45 -14.85,-14.78 -27.78,-29.38 -42.53,-44.91 -8.88,4.45 -34.33,34.82 -44.04,45.2z"/>
  <path class="fil5" d="M234.58 125.47c14.83,-5.02 35.54,-16.99 50.66,-24.22 35.03,-16.75 68,-30.44 105.55,-42.67 14.09,-4.59 46.6,-11.16 57.63,-16.5 -3,-7.51 -9.61,-11.86 -15.13,-18.1 -26.39,4.02 -82.51,32.38 -105.18,43.81l-71.56 40.68c-4.68,2.94 -5.93,3.82 -10.72,7.21l-7.68 5.94c-2.62,2.47 -1.49,1.2 -3.57,3.85z"/>
  <path class="fil0" d="M3.95 42.08c0.51,0.25 80.7,23.69 111.71,36.42 18.36,7.54 34.18,14.6 51.28,22.76 14.91,7.11 36,19.18 50.17,24.02 -16.82,-18.06 -162.16,-93.41 -190.18,-99.73 -10.73,-2.42 -19.85,9.94 -22.98,16.53z"/>
  <path class="fil0" d="M236.11 114.54c14.72,-6.77 29.59,-17.95 44.31,-27.13 35.97,-22.43 87.44,-50.57 127.38,-65.72 0.73,-0.28 6.35,-2.49 6.42,-2.53 5.63,-2.98 3.01,-1.36 5.64,-4.01l-14.25 -15.14c-32.39,10.03 -157.48,94.79 -169.5,114.54z"/>
 </g>
</svg>
